  <svg
    xmlns="http://www.w3.org/2000/svg"
    width={1200}
    height={1200}
    viewBox="0 0 900 900"
    {...props}
  >
    <path d="M326 1c-46.8 2.8-101.3 19.7-146 45.3-28.1 16.1-51.4 34-75.6 58.1C74.9 134 55 161.5 36.9 198c-56.3 113.3-47.6 248.8 22.6 354.5 56.4 84.9 144.9 140.5 247.1 155.4 87.9 12.9 177.1-8.1 251.7-59.2 3.8-2.6 7.4-4.7 8-4.7.7 0 58.2 57 127.9 126.7L821 897.5l39.4-39.4 39.5-39.5-126.4-126.8C703.9 622.1 647 564.5 647 563.9c0-.7 4.1-8 9.2-16.3 28.9-47.5 44.5-90.3 52.2-143.1 11.1-75.2-4.7-158.4-42.4-224-31-54.2-79.4-103-131.4-132.9C492.1 23.1 441.1 6.5 395 2.1 379.9.6 341.8 0 326 1zm64.5 38.1c39.8 3 90.4 19.9 128.7 43C625.6 146.4 685.3 265 672.9 387.5c-11.7 115.4-85.5 215.9-191.8 261-40.7 17.3-80.3 25-128.1 25-27.1-.1-38.8-1.2-62.6-6-40.1-8.1-84.4-27.8-120.4-53.5C96.7 561.6 48.6 478.2 38.9 387c-1.6-15.1-1.6-49.3 0-64.5 11.4-108.5 77.2-203 175.6-252.3 30.3-15.1 75.5-28.5 105.2-31.1 13.4-1.2 55.1-1.2 70.8 0zM735 706.5l111.4 111.4-13.1 13.2-13.2 13.1-112.3-112.1L595.5 620l12.6-12.5c7-6.9 13.3-12.5 14-12.5.8 0 51.5 50.2 112.9 111.5z" />
    <path d="M251.7 115.7c-9.1 6.4-9.8 13.7-2.9 27.6 2.2 4.5 10.6 19.2 18.6 32.5 8 13.4 14.6 24.7 14.6 25 0 .4-3.3 2.7-7.3 5.1-29 17.8-47.9 42.5-58.7 76.8-2.3 7.3-4.6 13.5-5.1 13.9-2.3 1.4-14.5-13.4-18.5-22.3-1.3-2.9-3.3-8.3-4.5-12-1.2-3.8-3.5-8.7-5-10.9-9.7-14.3-32.8-7.3-32.9 9.9 0 11.3 8.4 31.4 19.3 45.9 7.5 10 19.5 21.2 29 27.2l7.7 4.9v35.5l-31.2.4c-29.5.3-31.5.4-34.8 2.4-4.1 2.4-7.7 8.2-8.6 14-.7 4.8 1.6 10.9 5.9 16l2.6 3.1 34.3.7c18.9.4 34.6 1.1 35 1.4.3.4 1.6 5.6 2.8 11.7 1.2 6 4 17.2 6.1 24.8 2.2 7.5 3.9 14.7 3.9 16-.1 1.6-2.1 3.5-7.8 7.4-17 11.5-27.5 23.7-36.7 42.7-9 18.8-10.4 27.3-5.9 36.4 4.1 8.2 11.4 11.6 20 9.2 5.8-1.7 10.6-6.4 12.9-12.7 5.1-13.7 7.2-18.4 11.2-24.6 5-7.9 11.6-14.8 18.7-19.7l5-3.4 2 2.9c9.1 12.5 27.1 29.7 40.6 38.6 21.1 13.9 57.8 21.9 88.5 19.1 19-1.7 31.5-5.1 46-12.3 19.4-9.6 37.3-24 49.1-39.6 3-4 5.8-7.4 6.3-7.7 1.2-.8 9.9 5.2 15.3 10.6 6.8 6.7 12.1 15.5 16.8 27.7 5.2 13.5 8 17.8 13.3 20.2 5.6 2.5 9.2 2.4 15.3-.5 7.5-3.5 9.9-7.9 9.8-17.6-.3-16.2-14-43.1-28.8-56.8-4-3.7-16.6-13.3-22.4-17.2l-2.3-1.5 4-14c2.3-7.7 5.2-19.6 6.6-26.4 1.4-6.9 3.1-12.9 3.8-13.3 1.6-1-.5-.9 35.4-1.7 35.7-.7 34.6-.4 39.6-10.2 3.4-6.5 3.2-10.7-.8-17.5-4.5-7.7-5.3-7.9-40.7-8.2l-30.8-.3v-18.2l.1-18.2 7.9-4.8c15.4-9.3 31.2-26.8 38.9-43 5-10.5 9.1-23.6 9.1-29.1 0-7.7-8.2-16.6-16.7-18.2-4.9-.9-11.6 1.9-14.9 6.3-1.5 2-4.9 9.2-7.5 16-4.8 12.8-8.7 18.8-17.3 27.2-2.5 2.5-4.8 4.2-5.1 3.9-.4-.3-2-5.1-3.6-10.7-10.2-35.2-28.9-60.9-57.6-79.1-4.6-2.9-8.3-5.6-8.3-6.1 0-1.5 2-5.2 16.2-29.2 21.8-36.9 23.4-41.5 18.3-50.3-3.5-5.9-9.6-8.8-17.5-8.2-7.4.5-8.9 1.8-18 15.3-6 9-25.5 41-33.9 55.8-2.2 3.9-3.8 5.6-4.7 5.3-4.4-1.7-38.9-2.8-54.9-1.7-13.3.8-17.2.8-18.1-.2-.6-.6-8-12.7-16.4-26.7-8.4-14-18.4-30.1-22.1-35.6-7.6-11.3-9.2-12.4-18.8-12.4-4.5 0-6.4.5-9.4 2.7zm135.2 111.9c16 2.8 35.6 11.8 46.4 21.4 7.9 7.1 23 29 21.2 30.8-.9.9-177.2 1.5-189.3.7l-9.3-.7 2.7-4.6c3.6-6.1 9.6-14.3 15.6-21.4 8.7-10.1 27.6-20.8 43.9-24.9 15.8-3.9 49.8-4.6 68.8-1.3zM337 420.4v102.4l-6.7-1.4c-17.1-3.3-33.9-12.8-46.2-26-18.2-19.4-31.8-52.4-36.6-88.8-3.3-25.3-4.4-75-1.9-85.9l.6-2.7H337v102.4zm129.2-97.9c2.7 14.3 1.7 62.9-1.7 86.1-5.4 36-19.7 69.2-37.8 88.3-12.8 13.4-35.7 25.1-49.1 25.1H374V420.7c0-55.8.3-101.7.7-102 .3-.4 20.9-.6 45.7-.5l45.1.3.7 4z" />
  </svg>