  <svg
    xmlns="http://www.w3.org/2000/svg"
    width={1306.667}
    height={1306.667}
    viewBox="0 0 980 980"
    {...props}
  >
    <path d="M107 .5c-.8.2-4.9.9-9 1.5C51.4 9.6 12.9 47 2.4 95 .6 103.2.5 116.6.5 489.5c0 419.8-.4 390.2 5.6 408.6 11.5 35.6 40.2 64.3 75.8 75.8 18.4 6-11.2 5.6 408.6 5.6 372.9 0 386.3-.1 394.5-1.9 23.7-5.2 43.6-16.1 60.6-33.2 16-16.2 26.2-35.1 32-59.4 1.8-7.1 1.9-25.7 2.2-389 .2-278 0-384-.8-390.8-3.3-26.8-14.7-50.7-33.4-69.6-16-16.3-35-27-58.6-32.9L878.5.6l-385-.2C281.8.3 107.8.4 107 .5zM265 167c26.2 7.4 46.7 27.9 55.2 55 2 6.4 2.3 9.6 2.3 22 0 16.7-1.3 22.7-7.5 35.7-7.8 16.1-21 29.1-37.5 36.9-12.8 6-21.7 7.7-37.3 7.2-10.9-.4-13.9-.9-21.5-3.5-25.8-9.1-44.7-29.4-51.8-55.9-3.3-12-3-29.9.5-41.7 4.5-15.1 11.1-26.1 21.8-36.3 11.2-10.8 25.4-18.1 40.3-21 9.5-1.8 25.9-1.1 35.5 1.6zm411.5 202c34.4 3.3 62.3 14.2 85.3 33.4 23.6 19.7 40.6 49.4 48.2 84.2 5.5 25.1 5.3 20.3 5.7 180.6l.4 148.8h-134l-.4-125.3c-.4-136.9-.1-130.5-6.3-150.7-7.8-25.5-22.6-40.8-45.4-46.9-10.6-2.8-20.9-3.5-32.4-2.1-20.1 2.4-32.8 8.2-45.2 20.5-9.5 9.4-15 18.5-19.5 32.4-6 18.6-5.9 17-5.9 150.3V816H398V381l64.3.2 64.2.3.5 28.3.5 28.4 4.2-6c14.6-20.7 35.7-38.4 58.7-49.3 26.5-12.4 54.2-16.9 86.1-13.9zM311.8 598.7 312 816H177V599.2c0-119.3.3-217.2.7-217.5.3-.4 30.6-.6 67.2-.5l66.6.3.3 217.2z" />
  </svg>